<?xml version="1.0" encoding="UTF-8" standalone="no"?>
<!DOCTYPE svg PUBLIC "-//W3C//DTD SVG 1.1//EN" "http://www.w3.org/Graphics/SVG/1.1/DTD/svg11.dtd">
<svg xmlns:xl="http://www.w3.org/1999/xlink" xmlns:dc="http://purl.org/dc/elements/1.1/" version="1.1" xmlns="http://www.w3.org/2000/svg" viewBox="0 0 32 32" width="32" height="32">
  <defs>
    <linearGradient x1="0" x2="1" id="Gradient" gradientUnits="userSpaceOnUse">
      <stop offset="0" stop-color="#929292"/>
      <stop offset="1" stop-color="#212121"/>
    </linearGradient>
    <linearGradient id="Obj_Gradient" xl:href="#Gradient" gradientTransform="translate(16 6.9186) rotate(90) scale(18.1628)"/>
  </defs>
  <g id="Canvas_1" stroke-dasharray="none" stroke="none" stroke-opacity="1" fill-opacity="1" fill="none">
    <title>Canvas 1</title>
    <g id="Canvas_1_Layer_1">
      <title>Layer 1</title>
      <g id="Graphic_6">
        <title>Rectangle</title>
        <path d="M 6 0 L 26 0 C 29.31371 20290613e-23 32 2.6862915 32 6 L 32 26 C 32 29.31371 29.31371 32 26 32 L 6 32 C 2.6862915 32 40581225e-23 29.31371 0 26 L 8881784e-22 6 C 12939907e-22 2.6862915 2.6862915 -40581225e-23 6 0 Z" fill="#ebebeb"/>
      </g>
      <g id="Graphic_5">
        <path d="M 29.998073 25.05486 C 30.000823 25.060166 30.000586 25.066527 29.99745 25.071614 C 29.994314 25.076702 29.988738 25.07977 29.98276 25.079698 L 22.829298 25.079698 C 22.8145 25.07969 22.800835 25.072083 22.793232 25.059623 C 22.49313 24.57102 22.0508 23.864204 21.466248 22.93917 C 21.16297 22.458962 20.777918 21.853994 20.311091 21.124266 C 19.881353 20.452608 19.60779 20.03648 19.40568 19.679895 C 19.210035 19.33556 18.823168 19.020826 18.390368 18.98646 C 18.187577 18.97013 17.96664 18.96253 17.727556 18.963664 C 17.693985 18.96389 16.927396 18.968654 15.427791 18.977955 C 15.408486 18.977908 15.391114 18.966058 15.383899 18.948012 L 12.974572 12.890161 C 12.969455 12.877205 12.957747 12.868037 12.943894 12.866138 C 12.93004 12.86424 12.916168 12.869902 12.907543 12.880975 C 12.871022 12.928837 12.832687 13.003125 12.792538 13.10384 C 12.618102 13.542085 12.450811 13.970803 12.290665 14.389993 C 12.122127 14.83028 12.006782 15.128454 11.944629 15.284517 C 11.693523 15.915344 11.475761 16.505342 11.228398 17.108269 C 11.128364 17.35189 11.00712 17.66254 10.864668 18.04022 C 10.794236 18.226678 10.75953 18.454306 10.841531 18.641105 C 10.941225 18.867713 11.165451 19.002793 11.401246 19.03818 C 11.436179 19.043397 11.559463 19.045778 11.7711 19.045325 C 12.807282 19.04419 13.893934 19.043623 15.031057 19.043623 C 15.178046 19.043623 15.276039 19.041809 15.325035 19.03818 C 15.347151 19.036818 15.37131 19.019806 15.392065 19.02457 C 15.397509 19.025703 15.402953 19.03319 15.408397 19.047026 C 15.52 19.333859 15.629901 19.63124 15.726873 19.866353 C 16.311426 21.282483 16.881235 22.69056 17.4363 24.090585 C 17.51694 24.293716 17.629564 24.512498 17.694552 24.700317 C 17.734475 24.81555 17.781997 24.9301 17.837117 25.043972 C 17.840979 25.052112 17.840387 25.061665 17.83555 25.069266 C 17.830713 25.076867 17.82231 25.08145 17.8133 25.0814 L 12.542112 25.0814 C 12.51938 25.081417 12.49903 25.067307 12.491074 25.046013 C 12.296903 24.529737 12.09037 23.970362 11.871475 23.36789 C 11.787432 23.135497 11.591787 22.993612 11.35327 22.921818 C 11.286127 22.90163 11.168173 22.891876 10.999408 22.892557 C 10.457046 22.894598 10.045795 22.894939 9.765654 22.893578 C 9.53122 22.892557 9.371982 22.902424 9.170893 23.00654 C 9.008252 23.090924 8.89699 23.215003 8.837105 23.378777 C 8.656318 23.874185 8.46158 24.385357 8.252892 24.912294 C 8.240416 24.943597 8.227033 24.990325 8.212742 25.052478 C 8.209111 25.068168 8.195162 25.0793 8.179057 25.079358 L 2.0187904 25.079358 C 2.0125333 25.079377 2.0066807 25.076268 2.0031942 25.071072 C 1.9997076 25.065876 1.9990484 25.059282 2.0014375 25.0535 C 2.0191306 25.009266 2.0657452 24.939174 2.0813968 24.901746 C 2.3978314 24.14945 2.8983424 23.037164 3.1518303 22.454652 C 3.843223 20.864767 4.4678126 19.44274 5.0255995 18.18857 C 5.2171615 17.75781 5.488683 17.182103 5.706444 16.668322 C 5.8405036 16.351888 6.002464 16.039536 6.160681 15.682612 C 7.071196 13.627148 8.288959 10.885395 9.3696 8.496824 C 9.463169 8.289271 9.589403 7.893557 9.759869 7.620675 C 9.969238 7.284506 10.259019 7.0670845 10.629214 6.968411 C 10.760324 6.933479 10.968559 6.91692 11.253917 6.9187345 C 12.096381 6.924405 13.312897 6.9249725 14.903462 6.920436 C 15.047956 6.919982 15.212412 6.951966 15.396828 7.016387 C 15.810348 7.160654 16.099563 7.441362 16.264471 7.858511 C 16.514217 8.490019 16.597578 8.715607 16.825207 9.234832 C 16.940893 9.499208 17.04535 9.78638 17.163418 10.066408 C 17.307685 10.408929 17.42598 10.695534 17.5183 10.926225 C 17.564348 11.041004 17.630357 11.205686 17.716328 11.420272 C 18.0745 12.314001 18.261299 12.777878 18.276723 12.811903 C 18.294416 12.850919 18.310862 12.880861 18.32606 12.90173 C 18.330676 12.908006 18.338003 12.911713 18.345794 12.911713 C 18.353586 12.911713 18.360913 12.908006 18.36553 12.90173 C 18.435394 12.804645 18.511724 12.690547 18.594519 12.559436 C 18.840635 12.169507 19.135407 11.706424 19.478834 11.170186 C 19.910047 10.49694 20.20482 10.033857 20.36315 9.780936 C 20.978553 8.798061 21.569117 7.861347 22.134844 6.970793 C 22.153527 6.941535 22.185728 6.923831 22.220247 6.923838 L 28.515934 6.923838 C 28.525807 6.923928 28.534814 6.9294906 28.539315 6.938278 C 28.543816 6.9470656 28.543067 6.957625 28.53737 6.965689 C 28.457978 7.075704 28.309514 7.268741 28.09198 7.544799 C 27.855845 7.843994 27.58387 8.192299 27.276055 8.589713 C 27.13882 8.766871 27.035383 8.897868 26.965745 8.982705 C 26.76908 9.221902 26.643526 9.42163 26.45979 9.642113 C 26.239987 9.90649 25.942947 10.326701 25.739136 10.584272 C 25.51888 10.863279 25.26834 11.186065 24.987518 11.55263 C 24.805143 11.790806 24.676074 11.956396 24.60031 12.049398 C 24.400923 12.29472 24.237943 12.521668 24.08585 12.714591 C 23.593165 13.339068 23.111027 13.96377 22.639438 14.5887 C 22.456042 14.831981 22.222629 15.014016 22.296463 15.333173 C 22.311888 15.399182 22.359637 15.476532 22.43971 15.565225 C 22.497552 15.629192 22.561633 15.70643 22.631952 15.796936 C 23.78779 17.28418 25.343762 19.209326 26.173638 20.250158 C 26.288416 20.394198 26.446974 20.593472 26.64931 20.84798 C 27.7794 22.270235 28.50618 23.179163 28.829647 23.574763 C 29.354996 24.217386 29.739368 24.702812 29.98276 25.031042 C 29.98934 25.03989 29.994444 25.047828 29.998073 25.05486 Z" fill="url(#Obj_Gradient)"/>
      </g>
    </g>
  </g>
</svg>
