<svg xmlns="http://www.w3.org/2000/svg" xmlns:xl="http://www.w3.org/1999/xlink" version="1.1" viewBox="0 0 1024 1024" width="1024" height="1024">
  <defs>
    <!-- Background gradient -->
    <linearGradient x1="0" x2="1" id="BgGrad" gradientUnits="userSpaceOnUse">
      <stop class="bg-s0"   offset="0"/>
      <stop class="bg-s50"  offset=".4983774"/>
      <stop class="bg-s100" offset="1"/>
    </linearGradient>
    <linearGradient id="BgGradObj" xl:href="#BgGrad" gradientTransform="translate(0 11368684e-20) rotate(45) scale(1448.1547)"/>

    <!-- Letterform gradient (shared by all five paths via different transforms) -->
    <linearGradient x1="0" x2="1" id="FgGrad" gradientUnits="userSpaceOnUse">
      <stop class="fg-s0"   offset="0"/>
      <stop class="fg-s100" offset="1"/>
    </linearGradient>
    <linearGradient id="FgGradObj2" xl:href="#FgGrad" gradientTransform="translate(500.3793 115.84845) rotate(90) scale(772.7881)"/>
    <linearGradient id="FgGradObj3" xl:href="#FgGrad" gradientTransform="translate(818.1771 430.9087) rotate(90) scale(420.9997)"/>
    <linearGradient id="FgGradObj4" xl:href="#FgGrad" gradientTransform="translate(683.92556 112) rotate(90) scale(188.57088)"/>
    <linearGradient id="FgGradObj5" xl:href="#FgGrad" gradientTransform="translate(381.0559 722.57305) rotate(90) scale(66.6158)"/>
    <linearGradient id="FgGradObj6" xl:href="#FgGrad" gradientTransform="translate(436.85616 841.4858) rotate(90) scale(70.51417)"/>
  </defs>

  <style>
    /* Default — light mode: light-gray background, dark letterforms */
    .bg-s0   { stop-color: #ebebeb; }
    .bg-s50  { stop-color: #d6d6d6; }
    .bg-s100 { stop-color: #c1c1c1; }
    .fg-s0   { stop-color: #424242; }
    .fg-s100 { stop-color: #212121; }

    /* Dark mode: dark-gray background, white/silver letterforms */
    @media (prefers-color-scheme: dark) {
      .bg-s0   { stop-color: #424242; }
      .bg-s50  { stop-color: #323232; }
      .bg-s100 { stop-color: #212121; }
      .fg-s0   { stop-color: white;   }
      .fg-s100 { stop-color: #919191; }
    }
  </style>

  <g stroke="none" fill="none" stroke-dasharray="none" stroke-opacity="1" fill-opacity="1">

    <!-- Background rounded rectangle -->
    <path d="M 180 0 L 844 0 C 943.4113 6087184e-21 1024 80.588745 1024 180 L 1024 844 C 1024 943.4113 943.4113 1024 844 1024 L 180 1024 C 80.588745 1024 12174368e-21 943.4113 0 844 L 2842171e-20 180 C 40596077e-21 80.588745 80.588745 -12174368e-21 180 0 Z" fill="url(#BgGradObj)"/>

    <!-- Letterform — main stroke (vertical + horizontal bars) -->
    <path d="M 455.7969 116.17133 C 457.7716 115.7796 457.6675 115.70192 459.60093 116.17629 C 462.0185 120.69025 460.56433 132.78422 460.60234 138.42873 L 460.6585 192.8491 L 460.6949 352.74006 C 510.5257 353.94996 564.7092 352.8475 615.044 352.90535 L 881.4699 352.83924 C 882.8845 358.39615 888.5525 372.8818 890.7586 378.89325 C 818.1746 380.09157 742.1287 379.4172 669.40265 379.50315 L 669.3151 710.57575 C 669.6968 766.444 669.5844 822.3173 668.9763 878.1839 C 660.57175 881.9904 651.9953 885.2631 643.409 888.6366 C 642.867 863.3561 643.49 835.8641 643.54945 810.4216 L 643.55276 670.6129 L 142.7906 670.4179 C 139.11877 661.8941 135.98565 653.1472 133.40942 644.22834 L 303.3035 644.21016 L 356.69876 644.3639 L 356.5583 213.43877 C 349.3584 216.7296 338.371 223.66666 331.5743 228.01037 C 291.13624 253.44126 256.51658 287.1199 229.97925 326.84472 C 175.80734 409.5571 163.8962 496.3305 183.8715 592.1054 L 118.11728 592.1848 C 114.87675 572.4761 111.69405 551.86824 110.5968 531.9182 C 106.53994 458.4652 123.22843 385.35097 158.75365 320.9374 C 205.53232 236.63664 288.0312 162.66625 381.54063 135.82548 C 382.97334 163.73896 381.9587 198.1052 381.8579 226.48148 L 381.83312 352.4723 L 434.5806 352.49544 L 434.63677 119.68696 C 441.0732 118.99276 449.29105 117.31346 455.7969 116.17133 Z" fill="url(#FgGradObj2)"/>

    <!-- Letterform — right vertical bar -->
    <path d="M 722.93505 431.18475 L 905.1154 430.9087 C 907.7528 440.7019 909.1772 449.748 910.4612 459.76764 C 921.0735 539.8321 907.6916 621.2453 872.0094 693.69675 C 865.4028 707.2403 851.5714 732.0877 842.4712 743.88085 C 841.5788 662.84614 841.8928 578.8313 842.491 497.7768 L 803.4162 497.8495 L 789.3189 497.99496 L 789.1701 801.2813 C 770.0128 820.04955 745.4767 837.5269 722.7599 851.9084 C 722.4211 833.8212 722.4773 815.0992 722.6459 796.9856 C 723.7795 675.1715 721.2908 552.9624 722.93505 431.18475 Z" fill="url(#FgGradObj3)"/>

    <!-- Letterform — top horizontal bar -->
    <path d="M 515.1692 112.07885 C 597.9011 110.40285 678.9623 135.48333 746.29795 183.5898 C 690.7396 184.20135 634.1121 183.57326 578.4529 183.63607 C 578.7636 200.9448 578.3108 218.29322 578.5455 235.65485 L 754.2266 235.82013 L 804.221 236.00195 C 825.3745 259.98493 836.7073 273.16317 853.5445 300.0866 L 514.3066 300.57088 C 515.9442 238.2085 514.0422 174.64783 515.1692 112.07885 Z" fill="url(#FgGradObj4)"/>

    <!-- Letterform — bottom left horizontal bar -->
    <path d="M 171.87276 723.1656 C 221.66062 721.797 276.39438 723.2201 326.5904 723.2763 L 590.1294 723.2747 C 590.374 744.9271 590.1443 767.0556 590.0633 788.7361 C 555.5676 789.7477 515.89133 788.751 480.94283 788.7312 L 223.34286 788.7246 C 206.9452 770.163 184.0136 744.6957 171.87276 723.1656 Z" fill="url(#FgGradObj5)"/>

    <!-- Letterform — bottom right horizontal bar -->
    <path d="M 283.32657 841.8921 C 293.08948 841.183 308.35683 841.6177 318.5659 841.6177 L 383.94666 841.6491 L 589.9642 841.664 C 590.1261 857.6769 590.9606 887.3027 589.70474 904.1503 C 589.63864 905.0362 587.4805 905.2941 586.0924 905.7024 C 557.6481 912.0262 509.8713 913.1915 480.9759 910.9485 C 420.76247 906.6957 362.2627 889.03 309.7565 859.2454 C 303.634 855.7893 287.45284 846.7184 283.32657 841.8921 Z" fill="url(#FgGradObj6)"/>

  </g>
</svg>
